<?xml version="1.0" encoding="UTF-8" standalone="no"?>
<!-- Created with Inkscape (http://www.inkscape.org/) -->

<svg
   width="100mm"
   height="100mm"
   viewBox="0 0 100 100"
   version="1.1"
   id="svg1"
   inkscape:version="1.4.4 (dcaf3e7, 2026-05-05)"
   sodipodi:docname="logo_favicon.svg"
   xmlns:inkscape="http://www.inkscape.org/namespaces/inkscape"
   xmlns:sodipodi="http://sodipodi.sourceforge.net/DTD/sodipodi-0.dtd"
   xmlns="http://www.w3.org/2000/svg"
   xmlns:svg="http://www.w3.org/2000/svg">
  <sodipodi:namedview
     id="namedview1"
     pagecolor="#ffffff"
     bordercolor="#000000"
     borderopacity="0.25"
     inkscape:showpageshadow="2"
     inkscape:pageopacity="0.0"
     inkscape:pagecheckerboard="0"
     inkscape:deskcolor="#d1d1d1"
     inkscape:document-units="mm"
     inkscape:zoom="3.8350027"
     inkscape:cx="136.37539"
     inkscape:cy="256.97505"
     inkscape:window-width="1920"
     inkscape:window-height="1000"
     inkscape:window-x="-11"
     inkscape:window-y="-11"
     inkscape:window-maximized="1"
     inkscape:current-layer="layer1" />
  <defs
     id="defs1" />
  <g
     inkscape:label="Слой 1"
     inkscape:groupmode="layer"
     id="layer1">
    <rect
       style="fill:#d9d2c9;stroke-width:0.264583;fill-opacity:1"
       id="rect1"
       width="100.30092"
       height="100.30092"
       x="-0.39027593"
       y="0" />
    <path
       d="m 61.008624,62.586592 c -10.6916,1.87987 -19.32074,-12.419786 -27.082254,-12.719646 -7.761506,-0.29987 -12.671812,5.759664 -12.639836,2.319134 0.03197,-3.44053 2.613602,-7.225974 8.452728,-11.875724 5.839122,-4.64975 14.750852,-15.97991 23.016052,-17.37673 8.2652,-1.396816 12.20375,3.42746 15.5099,8.76299 3.30615,5.33553 10.0474,24.98807 10.30559,26.16992 0.25819,1.18185 1.993348,5.36676 -2.308952,3.28809 -4.30229,-2.07866 -9.795808,0.357006 -15.253228,1.431966 z m -7.60548,14.662614 c -6.77419,0.31361 -15.21563,-0.58197 -22.989187,-2.61279 -7.773553,-2.03081 -9.200899,-9.015239 -8.871111,-11.242339 0.329789,-2.2271 9.124991,-8.66225 15.481774,-6.11024 6.35679,2.552 13.011377,8.79521 18.962007,9.94009 5.95065,1.14488 11.496607,-0.363643 14.779437,-1.200563 1.68109,-0.42857 3.94872,-1.680065 5.81085,-0.649285 1.86214,1.03079 2.240853,2.351787 1.94775,4.119443 -0.293103,1.767656 -3.06305,3.420564 -7.83879,4.922634 -4.77574,1.50206 -10.50854,2.51945 -17.28273,2.83305 z"
       fill="#33383a"
       id="path1"
       style="fill:#2f3538;fill-opacity:1;stroke-width:0.0954741"
       sodipodi:nodetypes="czzzszzzczzzzzszzzz" />
  </g>
</svg>
